<?xml version="1.0" encoding="UTF-8" standalone="no"?>
<svg viewBox="0 0 600 300" xmlns="http://www.w3.org/2000/svg">
  <!-- 레드 블록 -->
  <g transform="translate(20, 20)">
    <rect x="0" y="0" width="80" height="80" rx="5" ry="5" fill="#FF4D4D" stroke="#333333" stroke-width="2"/>
    <circle cx="20" cy="20" r="5" fill="#FFFFFF" opacity="0.5"/>
    <circle cx="30" cy="30" r="3" fill="#FFFFFF" opacity="0.3"/>
    <text x="40" y="100" text-anchor="middle" font-family="Arial" font-size="14" fill="#333333">Red Block</text>
  </g>
  
  <!-- 블루 블록 -->
  <g transform="translate(120, 20)">
    <rect x="0" y="0" width="80" height="80" rx="5" ry="5" fill="#4D79FF" stroke="#333333" stroke-width="2"/>
    <circle cx="20" cy="20" r="5" fill="#FFFFFF" opacity="0.5"/>
    <circle cx="30" cy="30" r="3" fill="#FFFFFF" opacity="0.3"/>
    <text x="40" y="100" text-anchor="middle" font-family="Arial" font-size="14" fill="#333333">Blue Block</text>
  </g>
  
  <!-- 옐로우 블록 -->
  <g transform="translate(220, 20)">
    <rect x="0" y="0" width="80" height="80" rx="5" ry="5" fill="#FFD24D" stroke="#333333" stroke-width="2"/>
    <circle cx="20" cy="20" r="5" fill="#FFFFFF" opacity="0.5"/>
    <circle cx="30" cy="30" r="3" fill="#FFFFFF" opacity="0.3"/>
    <text x="40" y="100" text-anchor="middle" font-family="Arial" font-size="14" fill="#333333">Yellow Block</text>
  </g>
  
  <!-- 그린 블록 -->
  <g transform="translate(320, 20)">
    <rect x="0" y="0" width="80" height="80" rx="5" ry="5" fill="#4DFF88" stroke="#333333" stroke-width="2"/>
    <circle cx="20" cy="20" r="5" fill="#FFFFFF" opacity="0.5"/>
    <circle cx="30" cy="30" r="3" fill="#FFFFFF" opacity="0.3"/>
    <text x="40" y="100" text-anchor="middle" font-family="Arial" font-size="14" fill="#333333">Green Block</text>
  </g>
  
  <!-- 퍼플 블록 -->
  <g transform="translate(420, 20)">
    <rect x="0" y="0" width="80" height="80" rx="5" ry="5" fill="#B94DFF" stroke="#333333" stroke-width="2"/>
    <circle cx="20" cy="20" r="5" fill="#FFFFFF" opacity="0.5"/>
    <circle cx="30" cy="30" r="3" fill="#FFFFFF" opacity="0.3"/>
    <text x="40" y="100" text-anchor="middle" font-family="Arial" font-size="14" fill="#333333">Purple Block</text>
  </g>
  
  <!-- 빈 블록 (외곽선만) -->
  <g transform="translate(520, 20)">
    <rect x="0" y="0" width="80" height="80" rx="5" ry="5" fill="none" stroke="#666666" stroke-width="2" stroke-dasharray="5,3"/>
    <circle cx="40" cy="40" r="10" fill="none" stroke="#666666" stroke-width="1"/>
    <line x1="30" y1="40" x2="50" y2="40" stroke="#666666" stroke-width="1"/>
    <line x1="40" y1="30" x2="40" y2="50" stroke="#666666" stroke-width="1"/>
    <text x="40" y="100" text-anchor="middle" font-family="Arial" font-size="14" fill="#333333">Empty Block</text>
  </g>
  
  <!-- 개별 블록 (더 큰 버전) -->
  <!-- 레드 블록 -->
  <g transform="translate(50, 170)">
    <rect x="0" y="0" width="100" height="100" rx="8" ry="8" fill="#FF4D4D" stroke="#333333" stroke-width="3"/>
    <circle cx="25" cy="25" r="7" fill="#FFFFFF" opacity="0.5"/>
    <circle cx="38" cy="38" r="4" fill="#FFFFFF" opacity="0.3"/>
  </g>
  
  <!-- 빈 블록 (외곽선만, 더 큰 버전) -->
  <g transform="translate(350, 170)">
    <rect x="0" y="0" width="100" height="100" rx="8" ry="8" fill="none" stroke="#666666" stroke-width="3" stroke-dasharray="7,4"/>
    <circle cx="50" cy="50" r="15" fill="none" stroke="#666666" stroke-width="2"/>
    <line x1="35" y1="50" x2="65" y2="50" stroke="#666666" stroke-width="2"/>
    <line x1="50" y1="35" x2="50" y2="65" stroke="#666666" stroke-width="2"/>
  </g>
</svg>